<svg width="358" height="92" viewBox="0 0 358 92" fill="none" xmlns="http://www.w3.org/2000/svg">
<path d="M358 45.5571C358 70.7176 277.859 91.1142 179 91.1142C80.141 91.1142 0 70.7176 0 45.5571C0 20.3966 80.141 0 179 0C277.859 0 358 20.3966 358 45.5571Z" fill="#284F10"/>
<path d="M358 40.8846C358 63.4645 277.859 81.7692 179 81.7692C80.141 81.7692 0 63.4645 0 40.8846C0 18.3047 80.141 0 179 0C277.859 0 358 18.3047 358 40.8846Z" fill="#4C9420"/>
<path d="M358 40.8846C358 63.4645 277.859 81.7692 179 81.7692C80.141 81.7692 0 63.4645 0 40.8846C0 18.3047 80.141 0 179 0C277.859 0 358 18.3047 358 40.8846Z" fill="#4C9420"/>
<g opacity="0.3" filter="url(#filter0_f_173_2)">
<path d="M64.5692 44.1222C64.5692 41.1505 66.9783 38.7415 69.95 38.7415H290.202C293.174 38.7415 295.583 41.1505 295.583 44.1222V44.1222C295.583 47.094 293.174 49.503 290.202 49.503H69.95C66.9783 49.503 64.5692 47.094 64.5692 44.1222V44.1222Z" fill="#0D0D0D"/>
</g>
<defs>
<filter id="filter0_f_173_2" x="49.5692" y="23.7415" width="261.014" height="40.7615" filterUnits="userSpaceOnUse" color-interpolation-filters="sRGB">
<feFlood flood-opacity="0" result="BackgroundImageFix"/>
<feBlend mode="normal" in="SourceGraphic" in2="BackgroundImageFix" result="shape"/>
<feGaussianBlur stdDeviation="7.5" result="effect1_foregroundBlur_173_2"/>
</filter>
</defs>
</svg>
